<svg width="20" height="20" viewBox="0 0 20 20" fill="none" xmlns="http://www.w3.org/2000/svg">
<path d="M8.75 2.08337C8.75 1.39337 9.31 0.833374 10 0.833374C10.69 0.833374 11.25 1.39337 11.25 2.08337C11.25 2.77337 10.69 3.33337 10 3.33337C9.31 3.33337 8.75 2.77337 8.75 2.08337ZM2.5 10.8334C2.5 10.1434 1.94 9.58337 1.25 9.58337C0.56 9.58337 0 10.1434 0 10.8334C0 11.5234 0.56 12.0834 1.25 12.0834C1.94 12.0834 2.5 11.5234 2.5 10.8334ZM20 10.8334C20 10.1434 19.44 9.58337 18.75 9.58337C18.06 9.58337 17.5 10.1434 17.5 10.8334C17.5 11.5234 18.06 12.0834 18.75 12.0834C19.44 12.0834 20 11.5234 20 10.8334ZM5 4.58337C5 3.89337 4.44 3.33337 3.75 3.33337C3.06 3.33337 2.5 3.89337 2.5 4.58337C2.5 5.27337 3.06 5.83337 3.75 5.83337C4.44 5.83337 5 5.27337 5 4.58337ZM17.5 17.0834C17.5 16.3934 16.94 15.8334 16.25 15.8334C15.56 15.8334 15 16.3934 15 17.0834C15 17.7734 15.56 18.3334 16.25 18.3334C16.94 18.3334 17.5 17.7734 17.5 17.0834ZM3.75 15.8334C3.06 15.8334 2.5 16.3934 2.5 17.0834C2.5 17.7734 3.06 18.3334 3.75 18.3334C4.44 18.3334 5 17.7734 5 17.0834C5 16.3934 4.44 15.8334 3.75 15.8334ZM16.25 3.33337C15.56 3.33337 15 3.89337 15 4.58337C15 5.27337 15.56 5.83337 16.25 5.83337C16.94 5.83337 17.5 5.27337 17.5 4.58337C17.5 3.89337 16.94 3.33337 16.25 3.33337ZM10.8333 5.06671V10.8334C10.8333 11.2934 10.4608 11.6667 10 11.6667C9.53917 11.6667 9.16667 11.2934 9.16667 10.8334V5.06671C6.345 5.47337 4.16667 7.90087 4.16667 10.8334C4.16667 14.05 6.78417 16.6667 10 16.6667C13.2158 16.6667 15.8333 14.05 15.8333 10.8334C15.8333 7.90087 13.655 5.47337 10.8333 5.06671Z" fill="white"/>
</svg>
