<svg width="18" height="18" viewBox="0 0 18 18" fill="none" xmlns="http://www.w3.org/2000/svg">
<g filter="url(#filter0_d_1_841)">
<path d="M13.9975 17.2778C13.0283 18.2277 11.9701 18.0777 10.9515 17.6278C9.87347 17.1678 8.88449 17.1478 7.74715 17.6278C6.32302 18.2477 5.57139 18.0677 4.72086 17.2778C-0.10538 12.2485 0.606689 4.58942 6.08566 4.30946C7.42079 4.37945 8.35043 5.04936 9.13173 5.10935C10.2987 4.86939 11.4163 4.17947 12.6624 4.26946C14.1558 4.38945 15.2832 4.98937 16.025 6.06923C12.9393 7.939 13.6712 12.0485 16.4997 13.1983C15.9359 14.6981 15.2041 16.188 13.9876 17.2878L13.9975 17.2778ZM9.03283 4.24946C8.88449 2.01975 10.6745 0.179977 12.7316 0C13.0184 2.57967 10.4174 4.49943 9.03283 4.24946Z" fill="white"/>
</g>
<defs>
<filter id="filter0_d_1_841" x="-2.50034" y="0" width="23" height="26" filterUnits="userSpaceOnUse" color-interpolation-filters="sRGB">
<feFlood flood-opacity="0" result="BackgroundImageFix"/>
<feColorMatrix in="SourceAlpha" type="matrix" values="0 0 0 0 0 0 0 0 0 0 0 0 0 0 0 0 0 0 127 0" result="hardAlpha"/>
<feOffset dy="4"/>
<feGaussianBlur stdDeviation="2"/>
<feComposite in2="hardAlpha" operator="out"/>
<feColorMatrix type="matrix" values="0 0 0 0 0 0 0 0 0 0 0 0 0 0 0 0 0 0 0.25 0"/>
<feBlend mode="normal" in2="BackgroundImageFix" result="effect1_dropShadow_1_841"/>
<feBlend mode="normal" in="SourceGraphic" in2="effect1_dropShadow_1_841" result="shape"/>
</filter>
</defs>
</svg>
