<svg width="20" height="20" viewBox="0 0 20 20" fill="none" xmlns="http://www.w3.org/2000/svg">
<path d="M20 14.9998H16.6667V5.83309C16.6667 5.17005 16.4033 4.53416 15.9344 4.06532C15.4656 3.59648 14.8297 3.33309 14.1667 3.33309H5V-0.000244141H3.33333V3.33309H0V4.99976H3.33333V14.1664C3.33333 14.8295 3.59673 15.4653 4.06557 15.9342C4.53441 16.403 5.17029 16.6664 5.83333 16.6664H15V19.9998H16.6667V16.6664H20V14.9998ZM5.83333 14.9998C5.61232 14.9998 5.40036 14.912 5.24408 14.7557C5.0878 14.5994 5 14.3874 5 14.1664V4.99976H14.1667C14.3877 4.99976 14.5996 5.08755 14.7559 5.24383C14.9122 5.40011 15 5.61208 15 5.83309V14.9998H5.83333Z" fill="white"/>
</svg>
