<svg width="20" height="20" viewBox="0 0 20 20" fill="none" xmlns="http://www.w3.org/2000/svg">
<path d="M3.31666 6.8525C2.53704 7.77265 1.95651 8.84434 1.61166 10C2.68833 13.615 6.03666 16.25 10 16.25C10.8275 16.25 11.6275 16.135 12.3858 15.9208M5.19 5.19C6.6172 4.24822 8.29007 3.7474 10 3.75C13.9633 3.75 17.3108 6.385 18.3875 9.99833C17.7975 11.9728 16.5309 13.6763 14.81 14.81M5.19 5.19L2.5 2.5M5.19 5.19L8.23166 8.23167M14.81 14.81L17.5 17.5M14.81 14.81L11.7683 11.7683C12.0005 11.5362 12.1847 11.2605 12.3103 10.9572C12.436 10.6539 12.5006 10.3287 12.5006 10.0004C12.5006 9.67208 12.436 9.34697 12.3103 9.04363C12.1847 8.74029 12.0005 8.46467 11.7683 8.2325C11.5362 8.00033 11.2605 7.81617 10.9572 7.69052C10.6539 7.56487 10.3287 7.50021 10.0004 7.50021C9.67208 7.50021 9.34696 7.56487 9.04362 7.69052C8.74028 7.81617 8.46466 8.00033 8.2325 8.2325M11.7675 11.7675L8.23333 8.23333" stroke="#7D7D7D" stroke-width="1.5" stroke-linecap="round" stroke-linejoin="round"/>
</svg>
