<svg width="18" height="18" viewBox="0 0 18 18" fill="none" xmlns="http://www.w3.org/2000/svg">
<g clip-path="url(#clip0_1_832)">
<path d="M6.27158 0.591708C4.4731 1.21562 2.92209 2.39982 1.84637 3.97037C0.77066 5.54092 0.226938 7.41504 0.295072 9.31744C0.363206 11.2198 1.03961 13.0503 2.22492 14.5398C3.41023 16.0294 5.04198 17.0996 6.88048 17.5933C8.371 17.9779 9.93262 17.9948 11.4311 17.6425C12.7886 17.3376 14.0436 16.6853 15.0733 15.7497C16.145 14.7461 16.9228 13.4694 17.3233 12.0569C17.7586 10.5208 17.836 8.90536 17.5497 7.33468H9.1797V10.8067H14.027C13.9302 11.3605 13.7226 11.889 13.4167 12.3607C13.1108 12.8323 12.7128 13.2374 12.2467 13.5517C11.6548 13.9433 10.9876 14.2067 10.2878 14.3251C9.58603 14.4556 8.86619 14.4556 8.16439 14.3251C7.45309 14.1781 6.78021 13.8845 6.18861 13.4631C5.23819 12.7903 4.52456 11.8346 4.14954 10.7322C3.76819 9.60914 3.76819 8.39162 4.14954 7.26858C4.41649 6.48139 4.85778 5.76465 5.44048 5.17186C6.10731 4.48104 6.95154 3.98724 7.88054 3.74463C8.80955 3.50202 9.78742 3.51999 10.7069 3.79655C11.4252 4.01704 12.082 4.40228 12.625 4.92155C13.1716 4.3778 13.7172 3.83265 14.2619 3.28608C14.5431 2.99218 14.8497 2.71233 15.1267 2.4114C14.2978 1.64003 13.3249 1.03982 12.2636 0.645146C10.331 -0.0565874 8.21639 -0.0754458 6.27158 0.591708Z" fill="white"/>
<path d="M6.27083 0.591903C8.21549 -0.0757041 10.3301 -0.0573421 12.2629 0.643935C13.3243 1.04129 14.2968 1.64439 15.1246 2.41862C14.8433 2.71956 14.5466 3.00081 14.2597 3.29331C13.7141 3.838 13.169 4.38081 12.6243 4.92175C12.0812 4.40247 11.4244 4.01724 10.7061 3.79675C9.78699 3.51921 8.80914 3.50021 7.87989 3.74182C6.95064 3.98344 6.1059 4.47633 5.43833 5.16644C4.85563 5.75922 4.41434 6.47596 4.1474 7.26315L1.23224 5.00612C2.27569 2.93691 4.08236 1.35412 6.27083 0.591903Z" fill="#E33629"/>
<path d="M0.459695 7.24229C0.616381 6.46575 0.876513 5.71373 1.23313 5.00635L4.14829 7.269C3.76693 8.39204 3.76693 9.60956 4.14829 10.7326C3.17704 11.4826 2.20532 12.2363 1.23313 12.9938C0.340376 11.2168 0.0681004 9.19205 0.459695 7.24229Z" fill="#F8BD00"/>
<path d="M9.17882 7.3335H17.5488C17.8351 8.90418 17.7577 10.5196 17.3224 12.0557C16.922 13.4682 16.1441 14.7449 15.0724 15.7485C14.1316 15.0144 13.1866 14.286 12.2458 13.5519C12.7123 13.2373 13.1104 12.8318 13.4163 12.3596C13.7222 11.8875 13.9296 11.3584 14.0262 10.8041H9.17882C9.17741 9.64818 9.17882 8.49084 9.17882 7.3335Z" fill="#587DBD"/>
<path d="M1.22955 12.9937C2.20174 12.2437 3.17346 11.4899 4.14471 10.7324C4.52047 11.8352 5.23512 12.791 6.18658 13.4634C6.78003 13.8828 7.45436 14.174 8.16658 14.3184C8.86838 14.4489 9.58822 14.4489 10.29 14.3184C10.9898 14.1999 11.657 13.9365 12.2489 13.5449C13.1897 14.279 14.1347 15.0074 15.0755 15.7415C14.046 16.6777 12.7909 17.3304 11.4333 17.6357C9.93482 17.988 8.3732 17.9711 6.88268 17.5865C5.70382 17.2717 4.60269 16.7169 3.6483 15.9566C2.63814 15.1546 1.81308 14.1439 1.22955 12.9937Z" fill="#319F43"/>
</g>
<defs>
<clipPath id="clip0_1_832">
<rect width="18" height="18" fill="white"/>
</clipPath>
</defs>
</svg>
