<svg width="25" height="25" viewBox="0 0 25 25" fill="none" xmlns="http://www.w3.org/2000/svg">
<path d="M13.5839 0.749579C13.5836 0.749257 13.5835 0.748782 13.5836 0.748346C13.7464 0.196705 14.3263 -0.118579 14.8761 0.0417685C16.7959 0.604266 18.1198 1.92614 18.7063 3.86571C18.8729 4.41675 18.5605 4.998 18.0105 5.16466C17.9105 5.19487 17.8084 5.20946 17.7084 5.20946C17.2615 5.20946 16.848 4.91883 16.7115 4.46883C16.323 3.18342 15.5542 2.41259 14.2917 2.0428C13.7399 1.88141 13.4233 1.30268 13.5842 0.750809C13.5844 0.750374 13.5842 0.7499 13.5839 0.749579ZM25 8.31674V14.7438C25 17.224 23.9906 19.6479 22.2313 21.3958L21.3823 22.2396C19.5896 24.0198 17.1073 25 14.5844 25C12.0282 24.9781 9.66258 23.9521 7.8803 22.1188L0.877213 14.9125C-0.126948 13.9073 -0.288405 12.3021 0.512632 11.1876C0.659001 10.9846 0.828972 10.8038 1.0174 10.6482C1.21371 10.486 1.25622 10.1832 1.07617 10.0032C0.0605509 8.98757 -0.100906 7.38132 0.702214 6.26779C1.31668 5.41416 1.93427 4.35523 2.40982 3.41709C2.46966 3.29906 2.53892 3.18472 2.61783 3.07509C3.11158 2.38968 3.87303 1.95739 4.7074 1.89072C5.33437 1.84222 5.94343 2.00797 6.45936 2.34119C6.60561 2.43565 6.79771 2.39061 6.89906 2.24905C7.3928 1.56364 8.15426 1.13239 8.98759 1.06468C9.83029 0.998015 10.6397 1.29801 11.2313 1.88968L18.0584 8.71676C18.3136 8.97199 18.75 8.79123 18.75 8.43028C18.75 6.85008 19.8709 5.47716 21.3584 5.2355C22.274 5.08862 23.2 5.34279 23.899 5.93758C24.599 6.53237 25 7.40007 25 8.31882V8.31674ZM22.9167 8.31674C22.9167 8.01049 22.7833 7.7209 22.549 7.52299C22.3115 7.32195 22.0063 7.2407 21.6917 7.28966C21.2104 7.36778 20.8323 7.86778 20.8323 8.42819V11.9219C20.8323 12.3428 20.5781 12.723 20.1896 12.8844C19.799 13.0448 19.3521 12.9563 19.0542 12.6584L9.75842 3.36155C9.59904 3.20217 9.37925 3.12509 9.15529 3.14071C9.02404 3.15113 8.77509 3.20738 8.58967 3.46571C8.38134 3.7553 8.45009 4.21467 8.74592 4.5105L14.0073 9.77194C14.4146 10.1792 14.4146 10.8376 14.0073 11.2448C13.8042 11.448 13.5376 11.5501 13.2709 11.5501C13.0042 11.5501 12.7376 11.448 12.5344 11.2448L5.47719 4.18863C5.31886 4.03029 5.10323 3.95009 4.87407 3.96779C4.74282 3.97821 4.49386 4.03446 4.30844 4.29279C4.10011 4.58237 4.16886 5.04071 4.46469 5.33758L11.4542 12.3271C11.8615 12.7344 11.8615 13.3928 11.4542 13.8C11.2511 14.0032 10.9845 14.1053 10.7178 14.1053C10.4511 14.1053 10.1845 14.0032 9.98133 13.8L3.56157 7.38028C3.40324 7.22195 3.17408 7.1407 2.95949 7.15945C2.82824 7.16986 2.57929 7.22611 2.39283 7.48549C2.1845 7.77507 2.25325 8.2334 2.54908 8.53028L8.90009 14.8813C9.30738 15.2886 9.30738 15.9469 8.90009 16.3542C8.4928 16.7615 7.83447 16.7615 7.42718 16.3542L3.37407 12.3011C3.21574 12.1428 2.99491 12.0636 2.77095 12.0803C2.6397 12.0907 2.39075 12.1469 2.20429 12.4053C1.99596 12.6948 2.06471 13.1542 2.36158 13.45L9.37404 20.6677C10.7647 22.099 12.6292 22.8969 14.6251 22.9146C16.5886 22.9177 18.498 22.1677 19.9146 20.7625L20.7636 19.9188C22.1323 18.5594 22.9167 16.674 22.9167 14.7448V8.31674ZM4.45949 21.9167C3.19699 21.5469 2.4272 20.7761 2.03971 19.4906C1.87304 18.9396 1.29179 18.6313 0.740756 18.7948C0.189717 18.9615 -0.12174 19.5427 0.0449261 20.0938C0.63034 22.0333 1.95533 23.3552 3.87511 23.9177C3.97303 23.9458 4.07095 23.9604 4.16782 23.9604C4.61886 23.9604 5.03448 23.6656 5.16677 23.2104C5.32823 22.6583 5.01157 22.0792 4.45949 21.9167Z" fill="url(#paint0_linear_1_828)"/>
<defs>
<linearGradient id="paint0_linear_1_828" x1="0" y1="12.5" x2="25" y2="12.5" gradientUnits="userSpaceOnUse">
<stop stop-color="#00FEFF"/>
<stop offset="1" stop-color="#003EC1"/>
</linearGradient>
</defs>
</svg>
