<svg width="36" height="36" viewBox="0 0 36 36" fill="none" xmlns="http://www.w3.org/2000/svg">
<circle cx="18" cy="18" r="17.5" stroke="url(#paint0_linear_1_1145)"/>
<circle cx="18" cy="18" r="15" fill="white"/>
<path d="M25 13.8078V14.4317C25 14.9484 24.5807 15.3677 24.0641 15.3677C23.5475 15.3677 23.1282 14.9484 23.1282 14.4317V13.8078C23.1282 13.2918 22.7083 12.8719 22.1923 12.8719H21.5684C21.0517 12.8719 20.6325 12.4526 20.6325 11.9359C20.6325 11.4193 21.0517 11 21.5684 11H22.1923C23.7403 11 25 12.2598 25 13.8078ZM24.0641 18.4874C23.5475 18.4874 23.1282 18.9067 23.1282 19.4233V20.0473C23.1282 20.5633 22.7083 20.9832 22.1923 20.9832H21.5684C21.0517 20.9832 20.6325 21.4025 20.6325 21.9191C20.6325 22.4358 21.0517 22.8551 21.5684 22.8551H22.1923C23.7403 22.8551 25 21.5953 25 20.0473V19.4233C25 18.9067 24.5807 18.4874 24.0641 18.4874ZM14.0811 15.3677C14.5978 15.3677 15.017 14.9484 15.017 14.4317V13.8078C15.017 13.2918 15.437 12.8719 15.9529 12.8719H16.8888C17.4055 12.8719 17.8248 12.4526 17.8248 11.9359C17.8248 11.4193 17.4055 11 16.8888 11H15.9529C14.4043 11 13.1452 12.2598 13.1452 13.8078V14.4317C13.1452 14.9484 13.5645 15.3677 14.0811 15.3677ZM21.8273 18.9342C21.9277 18.7183 21.8828 18.4625 21.7144 18.294L20.5114 17.091L21.2801 15.4706C21.3787 15.2553 21.3325 15.0014 21.1653 14.8342C20.9981 14.667 20.7441 14.6208 20.5289 14.7194L18.9085 15.4881L17.7056 14.2851C17.5377 14.1173 17.2826 14.0717 17.0667 14.1715C16.8508 14.2714 16.7204 14.4948 16.7397 14.7319L16.9175 16.4602L15.3315 17.2919C15.1181 17.403 14.9983 17.637 15.0326 17.8753C15.0507 17.9995 15.1081 18.1112 15.193 18.1954C15.271 18.2734 15.3708 18.3283 15.4837 18.3508L16.4658 18.5454C14.1566 20.7299 10.2995 24.3775 10.2995 24.3775C9.39726 25.2673 10.7381 26.6007 11.6228 25.7009L17.4666 19.5207L17.6806 20.5334C17.7305 20.7686 17.9233 20.947 18.1623 20.9782C18.4013 21.0094 18.6334 20.8859 18.7413 20.6706L19.5437 19.0839L21.2645 19.2599C21.5016 19.2805 21.7275 19.1501 21.8273 18.9342Z" fill="black"/>
<defs>
<linearGradient id="paint0_linear_1_1145" x1="0" y1="18" x2="36" y2="18" gradientUnits="userSpaceOnUse">
<stop stop-color="#00FEFF"/>
<stop offset="1" stop-color="#003EC1"/>
</linearGradient>
</defs>
</svg>
