<svg width="20" height="20" viewBox="0 0 20 20" fill="none" xmlns="http://www.w3.org/2000/svg">
<path d="M6.66667 0H3.75C1.67917 0 0 1.67917 0 3.75V6.66667C0 7.5875 0.745833 8.33333 1.66667 8.33333H6.66667C7.5875 8.33333 8.33333 7.5875 8.33333 6.66667V1.66667C8.33333 0.745833 7.5875 0 6.66667 0ZM11.6667 8.33333H16.6667C17.5875 8.33333 18.3333 7.5875 18.3333 6.66667V3.75C18.3333 1.67917 16.6542 0 14.5833 0H11.6667C10.7458 0 10 0.745833 10 1.66667V6.66667C10 7.5875 10.7458 8.33333 11.6667 8.33333ZM6.66667 10H1.66667C0.745833 10 0 10.7458 0 11.6667V14.5833C0 16.6542 1.67917 18.3333 3.75 18.3333H6.66667C7.5875 18.3333 8.33333 17.5875 8.33333 16.6667V11.6667C8.33333 10.7458 7.5875 10 6.66667 10ZM19.7558 18.5775L17.6392 16.4608C18.0758 15.8017 18.3333 15.0142 18.3333 14.1667C18.3333 11.8692 16.4642 10 14.1667 10C11.8692 10 10 11.8692 10 14.1667C10 16.4642 11.8692 18.3333 14.1667 18.3333C15.0142 18.3333 15.8017 18.0758 16.4608 17.6392L18.5775 19.7558C18.74 19.9183 18.9533 20 19.1667 20C19.38 20 19.5933 19.9183 19.7558 19.7558C20.0817 19.43 20.0817 18.9033 19.7558 18.5775Z" fill="white"/>
</svg>
