<svg width="20" height="20" viewBox="0 0 20 20" fill="none" xmlns="http://www.w3.org/2000/svg">
<g clip-path="url(#clip0_1_1157)">
<path d="M18.795 0.768947C18.4188 0.455186 17.9777 0.228704 17.5035 0.105794C17.0293 -0.0171169 16.5338 -0.0334008 16.0525 0.0581132L8.39917 1.49311C7.44395 1.67213 6.58135 2.17942 5.96062 2.92721C5.33989 3.67501 5.00009 4.61626 5 5.58811V13.7964C4.49555 13.4965 3.92021 13.3366 3.33334 13.3331C2.67406 13.3331 2.0296 13.5286 1.48143 13.8949C0.93327 14.2612 0.506029 14.7817 0.253736 15.3908C0.00144427 15.9999 -0.0645668 16.6701 0.0640506 17.3167C0.192668 17.9634 0.510137 18.5573 0.976312 19.0235C1.44249 19.4896 2.03643 19.8071 2.68303 19.9357C3.32964 20.0644 3.99986 19.9983 4.60895 19.746C5.21803 19.4938 5.73863 19.0665 6.1049 18.5183C6.47117 17.9702 6.66667 17.3257 6.66667 16.6664V9.06311C6.66664 8.67427 6.80257 8.29765 7.05094 7.99846C7.2993 7.69926 7.64446 7.49633 8.02667 7.42478L17.3458 5.67478C17.4667 5.65202 17.5911 5.6563 17.7102 5.68733C17.8292 5.71835 17.9399 5.77534 18.0343 5.8542C18.1287 5.93307 18.2045 6.03186 18.2562 6.14348C18.3079 6.25509 18.3342 6.37677 18.3333 6.49978V11.2998C17.8292 10.9987 17.2539 10.8376 16.6667 10.8331C16.0074 10.8331 15.3629 11.0286 14.8148 11.3949C14.2666 11.7612 13.8394 12.2817 13.5871 12.8908C13.3348 13.4999 13.2688 14.1701 13.3974 14.8167C13.526 15.4634 13.8435 16.0573 14.3096 16.5235C14.7758 16.9896 15.3698 17.3071 16.0164 17.4357C16.663 17.5643 17.3332 17.4983 17.9423 17.246C18.5514 16.9938 19.072 16.5665 19.4382 16.0183C19.8045 15.4702 20 14.8257 20 14.1664V3.33311C20.0006 2.84331 19.8928 2.35944 19.6845 1.91615C19.4762 1.47286 19.1724 1.08111 18.795 0.768947ZM3.33334 18.3331C3.0037 18.3331 2.68147 18.2354 2.40738 18.0522C2.1333 17.8691 1.91968 17.6088 1.79354 17.3043C1.66739 16.9997 1.63438 16.6646 1.69869 16.3413C1.763 16.018 1.92174 15.721 2.15482 15.4879C2.38791 15.2548 2.68488 15.0961 3.00818 15.0318C3.33149 14.9675 3.6666 15.0005 3.97114 15.1266C4.27568 15.2528 4.53598 15.4664 4.71912 15.7405C4.90225 16.0146 5 16.3368 5 16.6664C5 17.1085 4.82441 17.5324 4.51185 17.845C4.19929 18.1575 3.77536 18.3331 3.33334 18.3331ZM17.0392 4.03978L7.71917 5.78645C7.34861 5.85706 6.99272 5.99006 6.66667 6.17978V5.58811C6.66659 5.00496 6.87037 4.44013 7.24275 3.99136C7.61513 3.54258 8.13268 3.23811 8.70584 3.13061L16.36 1.69561C16.6006 1.65057 16.8482 1.65909 17.0851 1.72055C17.3221 1.78201 17.5426 1.89492 17.731 2.05124C17.9194 2.20756 18.071 2.40346 18.1751 2.62501C18.2792 2.84656 18.3332 3.08832 18.3333 3.33311V4.15311C17.9199 4.00017 17.4729 3.96103 17.0392 4.03978ZM16.6667 15.8331C16.337 15.8331 16.0148 15.7354 15.7407 15.5522C15.4666 15.3691 15.253 15.1088 15.1269 14.8043C15.0007 14.4997 14.9677 14.1646 15.032 13.8413C15.0963 13.518 15.2551 13.221 15.4882 12.9879C15.7212 12.7548 16.0182 12.5961 16.3415 12.5318C16.6648 12.4675 16.9999 12.5005 17.3045 12.6266C17.609 12.7528 17.8693 12.9664 18.0525 13.2405C18.2356 13.5146 18.3333 13.8368 18.3333 14.1664C18.3333 14.6085 18.1577 15.0324 17.8452 15.345C17.5326 15.6575 17.1087 15.8331 16.6667 15.8331Z" fill="white"/>
</g>
<defs>
<clipPath id="clip0_1_1157">
<rect width="20" height="20" fill="white" transform="translate(0 -0.000244141)"/>
</clipPath>
</defs>
</svg>
