<svg width="20" height="20" viewBox="0 0 20 20" fill="none" xmlns="http://www.w3.org/2000/svg">
<path d="M8.46407 19.8689C6.6399 19.5864 4.92963 18.8042 3.5229 17.609C2.11618 16.4138 1.06798 14.8523 0.494549 13.0978C-0.0788826 11.3432 -0.155138 9.46406 0.27424 7.66878C0.703617 5.87351 1.62185 4.23224 2.9271 2.92698C4.23236 1.62173 5.87363 0.703495 7.6689 0.274118C9.46418 -0.15526 11.3433 -0.0790047 13.0979 0.494427C14.8525 1.06786 16.4139 2.11606 17.6091 3.52278C18.8043 4.9295 19.5866 6.63978 19.8691 8.46394C18.3137 8.20872 16.72 8.32746 15.2196 8.81034C13.7193 9.29321 12.3555 10.1264 11.241 11.2409C10.1265 12.3554 9.29334 13.7192 8.81046 15.2195C8.32758 16.7199 8.20884 18.3136 8.46407 19.8689ZM19.9999 10.1664C18.65 9.89052 17.2527 9.95363 15.9331 10.3501C14.6135 10.7466 13.4128 11.4641 12.4385 12.4384C11.4642 13.4127 10.7467 14.6134 10.3502 15.933C9.95375 17.2525 9.89064 18.6498 10.1666 19.9998L19.9999 10.1664Z" fill="white"/>
</svg>
