<svg width="16" height="17" viewBox="0 0 16 17" fill="none" xmlns="http://www.w3.org/2000/svg">
<path fill-rule="evenodd" clip-rule="evenodd" d="M8.95825 3.23071C8.50938 2.54403 7.49058 2.54402 7.04171 3.23071L4.77542 6.69752L3.04317 5.71608C2.17533 5.22438 1.13188 5.99495 1.36696 6.95392L2.54381 11.7546C2.5968 11.9708 2.79307 12.1231 3.0187 12.1231H12.9812C13.2069 12.1231 13.4032 11.9708 13.4562 11.7546L14.633 6.95392C14.8681 5.99494 13.8246 5.22439 12.9568 5.71608L11.2245 6.69752L8.95825 3.23071Z" fill="white"/>
<path d="M3.44021 13.0859C3.17039 13.0859 2.95166 13.3015 2.95166 13.5675C2.95166 13.8333 3.17039 14.0489 3.44021 14.0489H12.5598C12.8296 14.0489 13.0483 13.8333 13.0483 13.5675C13.0483 13.3015 12.8296 13.0859 12.5598 13.0859H3.44021Z" fill="white"/>
</svg>
