<svg width="20" height="20" viewBox="0 0 20 20" fill="none" xmlns="http://www.w3.org/2000/svg">
<path d="M19.9537 9.04321C19.7129 6.53905 18.5374 4.21808 16.6621 2.54202C14.786 0.866717 12.3478 -0.0412606 9.83186 0.00117923C7.31682 0.0428321 4.91012 1.03168 3.09161 2.76937C1.27303 4.50714 0.175841 6.86641 0.019304 9.37633C-0.137314 11.8871 0.657437 14.3648 2.24601 16.3149C3.83467 18.2651 6.10057 19.5455 8.59066 19.8997C10.021 20.103 11.4772 19.9955 12.8626 19.5865C12.9592 19.5548 13.0484 19.5032 13.1225 19.4332L19.1739 13.8217C19.2481 13.7526 19.3072 13.6685 19.3472 13.5752C19.8945 12.1315 20.1019 10.5802 19.9537 9.04321ZM6.33794 6.67063C6.74197 6.67063 7.10686 6.91388 7.2618 7.28793C7.41592 7.66114 7.33095 8.091 7.04521 8.37759C6.75862 8.66332 6.32876 8.74831 5.95555 8.59418C5.5815 8.43923 5.33825 8.07435 5.33825 7.67031C5.33825 7.4054 5.44322 7.15048 5.63066 6.96304C5.8181 6.7756 6.07302 6.67063 6.33794 6.67063ZM14.5487 13.0087C13.5123 14.4949 11.8154 15.3812 10.0035 15.3812C8.19164 15.3812 6.49469 14.4949 5.45843 13.0087C5.35513 12.8637 5.31431 12.6838 5.34513 12.5088C5.37512 12.3339 5.47426 12.1773 5.61922 12.0756C5.76501 11.9732 5.94494 11.934 6.1199 11.9648C6.29485 11.9965 6.45064 12.0965 6.55142 12.2423C7.33701 13.3736 8.62661 14.0484 10.0038 14.0484C11.3809 14.0484 12.6704 13.3736 13.4561 12.2423C13.5569 12.0965 13.7127 11.9965 13.8876 11.9648C14.0626 11.934 14.2425 11.9732 14.3883 12.0756C14.5333 12.1773 14.6324 12.3339 14.6624 12.5088C14.6932 12.6838 14.6524 12.8637 14.5491 13.0087H14.5487ZM13.6689 8.67C13.2649 8.67 12.9 8.42675 12.7451 8.0527C12.591 7.67948 12.6759 7.24963 12.9617 6.96304C13.2483 6.67731 13.6781 6.59232 14.0513 6.74645C14.4254 6.9014 14.6686 7.26628 14.6686 7.67031C14.6686 7.93523 14.5637 8.19015 14.3762 8.37759C14.1888 8.56503 13.9339 8.67 13.6689 8.67Z" fill="white"/>
</svg>
