<svg width="20" height="20" viewBox="0 0 20 20" fill="none" xmlns="http://www.w3.org/2000/svg">
<g clip-path="url(#clip0_1_1161)">
<path d="M15.8333 -0.000244141H4.16667C3.062 0.00107907 2.00296 0.440491 1.22185 1.22161C0.440735 2.00272 0.00132321 3.06176 0 4.16642L0 15.8331C0.00132321 16.9378 0.440735 17.9968 1.22185 18.7779C2.00296 19.559 3.062 19.9984 4.16667 19.9998H15.8333C16.938 19.9984 17.997 19.559 18.7782 18.7779C19.5593 17.9968 19.9987 16.9378 20 15.8331V4.16642C19.9987 3.06176 19.5593 2.00272 18.7782 1.22161C17.997 0.440491 16.938 0.00107907 15.8333 -0.000244141ZM18.3333 15.8331C18.3333 16.4961 18.0699 17.132 17.6011 17.6009C17.1323 18.0697 16.4964 18.3331 15.8333 18.3331H4.16667C3.50363 18.3331 2.86774 18.0697 2.3989 17.6009C1.93006 17.132 1.66667 16.4961 1.66667 15.8331V4.16642C1.66667 3.50338 1.93006 2.8675 2.3989 2.39866C2.86774 1.92981 3.50363 1.66642 4.16667 1.66642H15.8333C16.4964 1.66642 17.1323 1.92981 17.6011 2.39866C18.0699 2.8675 18.3333 3.50338 18.3333 4.16642V15.8331ZM15 7.49976C15 7.72077 14.9122 7.93273 14.7559 8.08901C14.5996 8.24529 14.3877 8.33309 14.1667 8.33309C13.9457 8.33309 13.7337 8.24529 13.5774 8.08901C13.4211 7.93273 13.3333 7.72077 13.3333 7.49976C13.3333 7.27874 13.2455 7.06678 13.0893 6.9105C12.933 6.75422 12.721 6.66642 12.5 6.66642H10.8333V13.3331H11.6667C11.8877 13.3331 12.0996 13.4209 12.2559 13.5772C12.4122 13.7334 12.5 13.9454 12.5 14.1664C12.5 14.3874 12.4122 14.5994 12.2559 14.7557C12.0996 14.912 11.8877 14.9998 11.6667 14.9998H8.33333C8.11232 14.9998 7.90036 14.912 7.74408 14.7557C7.5878 14.5994 7.5 14.3874 7.5 14.1664C7.5 13.9454 7.5878 13.7334 7.74408 13.5772C7.90036 13.4209 8.11232 13.3331 8.33333 13.3331H9.16667V6.66642H7.5C7.27899 6.66642 7.06702 6.75422 6.91074 6.9105C6.75446 7.06678 6.66667 7.27874 6.66667 7.49976C6.66667 7.72077 6.57887 7.93273 6.42259 8.08901C6.26631 8.24529 6.05435 8.33309 5.83333 8.33309C5.61232 8.33309 5.40036 8.24529 5.24408 8.08901C5.0878 7.93273 5 7.72077 5 7.49976C5 6.83671 5.26339 6.20083 5.73223 5.73199C6.20107 5.26315 6.83696 4.99976 7.5 4.99976H12.5C13.163 4.99976 13.7989 5.26315 14.2678 5.73199C14.7366 6.20083 15 6.83671 15 7.49976Z" fill="white"/>
</g>
<defs>
<clipPath id="clip0_1_1161">
<rect width="20" height="20" fill="white" transform="translate(0 -0.000244141)"/>
</clipPath>
</defs>
</svg>
